<svg width="40" height="40" viewBox="0 0 40 40" fill="none" xmlns="http://www.w3.org/2000/svg">
<path d="M27.5 16C27.5 16 29.7309 20.2477 31.1 23V23C33.0542 26.9286 35.0078 32.4963 31.1898 34.6588C29.5554 35.5845 27.1546 36 23.85 36H15.15C12.1064 36 9.82948 35.6475 8.21188 34.8686C3.98405 32.8328 5.9881 26.7853 7.9 22.5V22.5C10.8 16 11.5 16 11.5 16" stroke="#737D85" stroke-width="2" stroke-linecap="round" stroke-linejoin="round"/>
<path d="M11.2428 9.49C13.2128 0.830002 26.0428 0.840003 28.0028 9.5C29.1528 14.58 25.9928 18.88 23.2228 21.54C22.2535 22.4755 21.1998 23.4301 19.78 23.9452C19.6783 23.9821 19.5668 23.9821 19.4651 23.9452C18.045 23.4301 16.9873 22.476 16.0128 21.54C13.2528 18.88 10.0928 14.57 11.2428 9.49Z" stroke="#737D85" stroke-width="2"/>
<path d="M17 12.5L18.5 14L22.5 10" stroke="#737D85" stroke-width="2" stroke-linecap="round" stroke-linejoin="round"/>
</svg>
