<svg width="41" height="40" viewBox="0 0 41 40" fill="none" xmlns="http://www.w3.org/2000/svg">
<path d="M27.833 16C27.833 16 30.0639 20.2477 31.433 23V23C33.3872 26.9286 35.3408 32.4963 31.5228 34.6588C29.8884 35.5845 27.4876 36 24.183 36H15.483C12.4394 36 10.1625 35.6475 8.54489 34.8686C4.31706 32.8328 6.32111 26.7853 8.23301 22.5V22.5C11.133 16 11.833 16 11.833 16" stroke="black" stroke-width="2" stroke-linecap="round" stroke-linejoin="round"/>
<path d="M11.5758 9.49C13.5458 0.830002 26.3758 0.840003 28.3358 9.5C29.4858 14.58 26.3258 18.88 23.5558 21.54C22.5865 22.4755 21.5329 23.4301 20.113 23.9452C20.0113 23.9821 19.8998 23.9821 19.7981 23.9452C18.378 23.4301 17.3204 22.476 16.3458 21.54C13.5858 18.88 10.4258 14.57 11.5758 9.49Z" stroke="black" stroke-width="2"/>
<path d="M17.333 12.5L18.833 14L22.833 10" stroke="black" stroke-width="2" stroke-linecap="round" stroke-linejoin="round"/>
</svg>
