<svg width="40" height="40" viewBox="0 0 40 40" fill="none" xmlns="http://www.w3.org/2000/svg">
<path d="M15.0002 36.6667H25.0002C33.3335 36.6667 36.6668 33.3334 36.6668 25V15C36.6668 6.66671 33.3335 3.33337 25.0002 3.33337H15.0002C6.66683 3.33337 3.3335 6.66671 3.3335 15V25C3.3335 33.3334 6.66683 36.6667 15.0002 36.6667Z" stroke="#737D85" stroke-width="2" stroke-linecap="round" stroke-linejoin="round"/>
<path d="M23.3335 13.3334H31.6668" stroke="#737D85" stroke-width="2" stroke-linecap="round" stroke-linejoin="round"/>
<path d="M25 20H31.6667" stroke="#737D85" stroke-width="2" stroke-linecap="round" stroke-linejoin="round"/>
<path d="M28.3335 26.6666H31.6668" stroke="#737D85" stroke-width="2" stroke-linecap="round" stroke-linejoin="round"/>
<path d="M14.1666 18.8168C15.8326 18.8168 17.1832 17.4662 17.1832 15.8001C17.1832 14.1341 15.8326 12.7834 14.1666 12.7834C12.5005 12.7834 11.1499 14.1341 11.1499 15.8001C11.1499 17.4662 12.5005 18.8168 14.1666 18.8168Z" stroke="#737D85" stroke-width="2" stroke-linecap="round" stroke-linejoin="round"/>
<path d="M20.0002 27.2167C19.7668 24.8 17.8502 22.9 15.4335 22.6833C14.6002 22.6 13.7502 22.6 12.9002 22.6833C10.4835 22.9167 8.56683 24.8 8.3335 27.2167" stroke="#737D85" stroke-width="2" stroke-linecap="round" stroke-linejoin="round"/>
</svg>
