<svg width="40" height="40" viewBox="0 0 40 40" fill="none" xmlns="http://www.w3.org/2000/svg">
<path d="M3.45026 7.66668C4.78359 1.90001 13.4669 1.90001 14.7836 7.66668C15.5669 11.05 13.4169 13.9167 11.5503 15.7C9 17.5 9 17.5 6.66692 15.7C4.81692 13.9167 2.66692 11.05 3.45026 7.66668Z" stroke="#737D85" stroke-width="2"/>
<path d="M25.1166 27.6667C26.4499 21.9 35.1833 21.9 36.5166 27.6667C37.2999 31.05 35.1499 33.9167 33.2666 35.7C31 38 31 38 28.3666 35.7C26.4131 33.9938 24.3333 31.05 25.1166 27.6667Z" stroke="#737D85" stroke-width="2"/>
<path d="M20.0003 8.33337H24.467C27.5503 8.33337 28.9836 12.15 26.667 14.1834L13.3503 25.8334C11.0336 27.85 12.467 31.6667 15.5336 31.6667H20.0003" stroke="#737D85" stroke-width="2" stroke-linecap="round" stroke-linejoin="round"/>
<path d="M9.14369 9.16671H9.16295" stroke="#737D85" stroke-width="2" stroke-linecap="round" stroke-linejoin="round"/>
<path d="M30.8102 29.1667H30.8295" stroke="#737D85" stroke-width="2" stroke-linecap="round" stroke-linejoin="round"/>
</svg>
