<svg width="40" height="40" viewBox="0 0 40 40" fill="none" xmlns="http://www.w3.org/2000/svg">
<path d="M14.9997 36.6666H24.9997C33.333 36.6666 36.6663 33.3333 36.6663 24.9999V14.9999C36.6663 6.66659 33.333 3.33325 24.9997 3.33325H14.9997C6.66634 3.33325 3.33301 6.66659 3.33301 14.9999V24.9999C3.33301 33.3333 6.66634 36.6666 14.9997 36.6666Z" stroke="black" stroke-width="2" stroke-linecap="round" stroke-linejoin="round"/>
<path d="M25.9497 30.8334V24.3334" stroke="black" stroke-width="2" stroke-miterlimit="10" stroke-linecap="round" stroke-linejoin="round"/>
<path d="M25.9497 12.4167V9.16675" stroke="black" stroke-width="2" stroke-miterlimit="10" stroke-linecap="round" stroke-linejoin="round"/>
<path d="M25.95 21.0833C28.3433 21.0833 30.2834 19.1432 30.2834 16.75C30.2834 14.3567 28.3433 12.4166 25.95 12.4166C23.5568 12.4166 21.6167 14.3567 21.6167 16.75C21.6167 19.1432 23.5568 21.0833 25.95 21.0833Z" stroke="black" stroke-width="2" stroke-miterlimit="10" stroke-linecap="round" stroke-linejoin="round"/>
<path d="M14.0503 30.8334V27.5834" stroke="black" stroke-width="2" stroke-miterlimit="10" stroke-linecap="round" stroke-linejoin="round"/>
<path d="M14.0503 15.6667V9.16675" stroke="black" stroke-width="2" stroke-miterlimit="10" stroke-linecap="round" stroke-linejoin="round"/>
<path d="M14.0501 27.5833C16.4434 27.5833 18.3835 25.6432 18.3835 23.25C18.3835 20.8567 16.4434 18.9166 14.0501 18.9166C11.6569 18.9166 9.7168 20.8567 9.7168 23.25C9.7168 25.6432 11.6569 27.5833 14.0501 27.5833Z" stroke="black" stroke-width="2" stroke-miterlimit="10" stroke-linecap="round" stroke-linejoin="round"/>
</svg>
