<svg width="41" height="40" viewBox="0 0 41 40" fill="none" xmlns="http://www.w3.org/2000/svg">
<path d="M15.6672 36.6667H25.6672C34.0005 36.6667 37.3338 33.3334 37.3338 25V15C37.3338 6.66671 34.0005 3.33337 25.6672 3.33337H15.6672C7.33382 3.33337 4.00049 6.66671 4.00049 15V25C4.00049 33.3334 7.33382 36.6667 15.6672 36.6667Z" stroke="black" stroke-width="2" stroke-linecap="round" stroke-linejoin="round"/>
<path d="M24.0003 13.3333H32.3337" stroke="black" stroke-width="2" stroke-linecap="round" stroke-linejoin="round"/>
<path d="M25.667 20H32.3337" stroke="black" stroke-width="2" stroke-linecap="round" stroke-linejoin="round"/>
<path d="M29.0003 26.6667H32.3337" stroke="black" stroke-width="2" stroke-linecap="round" stroke-linejoin="round"/>
<path d="M14.8336 18.8167C16.4996 18.8167 17.8502 17.4661 17.8502 15.8001C17.8502 14.134 16.4996 12.7834 14.8336 12.7834C13.1675 12.7834 11.8169 14.134 11.8169 15.8001C11.8169 17.4661 13.1675 18.8167 14.8336 18.8167Z" stroke="black" stroke-width="2" stroke-linecap="round" stroke-linejoin="round"/>
<path d="M20.667 27.2167C20.4337 24.8 18.517 22.9 16.1003 22.6833C15.267 22.6 14.417 22.6 13.567 22.6833C11.1503 22.9167 9.23366 24.8 9.00033 27.2167" stroke="black" stroke-width="2" stroke-linecap="round" stroke-linejoin="round"/>
</svg>
