<svg width="40" height="40" viewBox="0 0 40 40" fill="none" xmlns="http://www.w3.org/2000/svg">
<path d="M30.2333 36.0334C28.7666 36.4667 27.0333 36.6667 24.9999 36.6667H14.9999C12.9666 36.6667 11.2333 36.4667 9.7666 36.0334C10.1333 31.7 14.5833 28.2833 19.9999 28.2833C25.4166 28.2833 29.8666 31.7 30.2333 36.0334Z" stroke="#737D85" stroke-width="2" stroke-linecap="round" stroke-linejoin="round"/>
<path d="M24.9997 3.33337H14.9997C6.66634 3.33337 3.33301 6.66671 3.33301 15V25C3.33301 31.3 5.23301 34.75 9.76634 36.0334C10.133 31.7 14.583 28.2833 19.9997 28.2833C25.4163 28.2833 29.8663 31.7 30.233 36.0334C34.7663 34.75 36.6663 31.3 36.6663 25V15C36.6663 6.66671 33.333 3.33337 24.9997 3.33337ZM19.9997 23.6167C16.6997 23.6167 14.033 20.9334 14.033 17.6334C14.033 14.3334 16.6997 11.6667 19.9997 11.6667C23.2997 11.6667 25.9663 14.3334 25.9663 17.6334C25.9663 20.9334 23.2997 23.6167 19.9997 23.6167Z" stroke="#737D85" stroke-width="2" stroke-linecap="round" stroke-linejoin="round"/>
<path d="M25.9665 17.6333C25.9665 20.9333 23.2999 23.6166 19.9999 23.6166C16.6999 23.6166 14.0332 20.9333 14.0332 17.6333C14.0332 14.3333 16.6999 11.6666 19.9999 11.6666C23.2999 11.6666 25.9665 14.3333 25.9665 17.6333Z" stroke="#737D85" stroke-width="2" stroke-linecap="round" stroke-linejoin="round"/>
</svg>
