<svg width="40" height="40" viewBox="0 0 40 40" fill="none" xmlns="http://www.w3.org/2000/svg">
<path d="M30.2331 36.0333C28.7664 36.4667 27.0331 36.6667 24.9998 36.6667H14.9998C12.9664 36.6667 11.2331 36.4667 9.76643 36.0333C10.1331 31.7 14.5831 28.2833 19.9998 28.2833C25.4164 28.2833 29.8664 31.7 30.2331 36.0333Z" stroke="black" stroke-width="2" stroke-linecap="round" stroke-linejoin="round"/>
<path d="M25 3.33333H15C6.66666 3.33333 3.33333 6.66667 3.33333 15V25C3.33333 31.3 5.23333 34.75 9.76666 36.0333C10.1333 31.7 14.5833 28.2833 20 28.2833C25.4167 28.2833 29.8667 31.7 30.2333 36.0333C34.7667 34.75 36.6667 31.3 36.6667 25V15C36.6667 6.66667 33.3333 3.33333 25 3.33333ZM20 23.6166C16.7 23.6166 14.0333 20.9334 14.0333 17.6334C14.0333 14.3334 16.7 11.6667 20 11.6667C23.3 11.6667 25.9667 14.3334 25.9667 17.6334C25.9667 20.9334 23.3 23.6166 20 23.6166Z" stroke="black" stroke-width="2" stroke-linecap="round" stroke-linejoin="round"/>
<path d="M25.9665 17.6334C25.9665 20.9334 23.2999 23.6166 19.9999 23.6166C16.6999 23.6166 14.0332 20.9334 14.0332 17.6334C14.0332 14.3334 16.6999 11.6667 19.9999 11.6667C23.2999 11.6667 25.9665 14.3334 25.9665 17.6334Z" stroke="black" stroke-width="2" stroke-linecap="round" stroke-linejoin="round"/>
</svg>
