<svg width="40" height="40" viewBox="0 0 40 40" fill="none" xmlns="http://www.w3.org/2000/svg">
<path d="M3.3335 16.6668V23.3334C3.3335 26.6668 5.00016 28.3334 8.3335 28.3334H10.7168C11.3335 28.3334 11.9502 28.5168 12.4835 28.8334L17.3502 31.8834C21.5502 34.5168 25.0002 32.6001 25.0002 27.6501V12.3501C25.0002 7.38343 21.5502 5.48343 17.3502 8.11676L12.4835 11.1668C11.9502 11.4834 11.3335 11.6668 10.7168 11.6668H8.3335C5.00016 11.6668 3.3335 13.3334 3.3335 16.6668Z" stroke="#737D85" stroke-width="2"/>
<path d="M30 13.3334C32.9667 17.2834 32.9667 22.7167 30 26.6667" stroke="#737D85" stroke-width="2" stroke-linecap="round" stroke-linejoin="round"/>
<path d="M33.0503 9.16663C37.867 15.5833 37.867 24.4166 33.0503 30.8333" stroke="#737D85" stroke-width="2" stroke-linecap="round" stroke-linejoin="round"/>
</svg>
