<svg width="40" height="40" viewBox="0 0 40 40" fill="none" xmlns="http://www.w3.org/2000/svg">
<path d="M3.33333 16.6667V23.3334C3.33333 26.6667 5 28.3334 8.33333 28.3334H10.7167C11.3333 28.3334 11.95 28.5167 12.4833 28.8334L17.35 31.8834C21.55 34.5167 25 32.6001 25 27.6501V12.3501C25 7.38339 21.55 5.48339 17.35 8.11672L12.4833 11.1667C11.95 11.4834 11.3333 11.6667 10.7167 11.6667H8.33333C5 11.6667 3.33333 13.3334 3.33333 16.6667Z" stroke="black" stroke-width="2"/>
<path d="M30 13.3333C32.9667 17.2833 32.9667 22.7167 30 26.6667" stroke="black" stroke-width="2" stroke-linecap="round" stroke-linejoin="round"/>
<path d="M33.0501 9.16667C37.8668 15.5833 37.8668 24.4167 33.0501 30.8333" stroke="black" stroke-width="2" stroke-linecap="round" stroke-linejoin="round"/>
</svg>
